<svg width="37" height="11" viewBox="0 0 37 11" fill="none" xmlns="http://www.w3.org/2000/svg">
<g clip-path="url(#clip0_102_6)">
<path d="M0.516 9V8.424H0.552C0.768 8.424 0.952 8.404 1.104 8.364C1.256 8.316 1.372 8.24 1.452 8.136C1.532 8.024 1.572 7.868 1.572 7.668V3.66C1.572 3.54 1.536 3.452 1.464 3.396C1.4 3.332 1.296 3.28 1.152 3.24C1.016 3.2 0.844 3.16 0.636 3.12L0.516 3.096V2.448H2.412L2.604 3.84L2.64 3.888V8.304C2.64 8.328 2.688 8.352 2.784 8.376C2.88 8.392 2.996 8.404 3.132 8.412C3.268 8.42 3.392 8.424 3.504 8.424H3.564V9H0.516ZM7.884 9H4.836V8.424H4.884C4.996 8.424 5.12 8.42 5.256 8.412C5.392 8.404 5.508 8.392 5.604 8.376C5.7 8.352 5.748 8.328 5.748 8.304V4.224C5.748 3.976 5.712 3.772 5.64 3.612C5.576 3.452 5.468 3.332 5.316 3.252C5.164 3.172 4.956 3.132 4.692 3.132C4.436 3.132 4.18 3.184 3.924 3.288C3.668 3.384 3.416 3.54 3.168 3.756C2.92 3.964 2.668 4.236 2.412 4.572V3.984C2.652 3.624 2.904 3.32 3.168 3.072C3.44 2.824 3.728 2.636 4.032 2.508C4.336 2.38 4.664 2.316 5.016 2.316C5.4 2.316 5.724 2.384 5.988 2.52C6.26 2.656 6.464 2.856 6.6 3.12C6.744 3.376 6.816 3.7 6.816 4.092V7.668C6.816 7.868 6.856 8.024 6.936 8.136C7.016 8.24 7.132 8.316 7.284 8.364C7.444 8.404 7.628 8.424 7.836 8.424H7.884V9ZM8.91113 5.796C8.91113 6.284 8.96713 6.696 9.07913 7.032C9.19113 7.368 9.34713 7.636 9.54712 7.836C9.75513 8.036 9.99113 8.18 10.2551 8.268C10.5271 8.356 10.8151 8.4 11.1191 8.4C11.4631 8.4 11.7591 8.344 12.0071 8.232C12.2631 8.12 12.4831 7.972 12.6671 7.788C12.8511 7.596 13.0071 7.392 13.1351 7.176L13.7231 7.644C13.5711 7.932 13.3631 8.192 13.0991 8.424C12.8431 8.648 12.5471 8.824 12.2111 8.952C11.8751 9.08 11.5031 9.144 11.0951 9.144C10.4791 9.144 9.92313 9.016 9.42713 8.76C8.93913 8.496 8.55113 8.116 8.26312 7.62C7.97512 7.116 7.83112 6.504 7.83112 5.784C7.83112 5.088 7.95912 4.484 8.21512 3.972C8.47113 3.452 8.82713 3.048 9.28312 2.76C9.74713 2.472 10.2791 2.328 10.8791 2.328C11.3591 2.328 11.7751 2.408 12.1271 2.568C12.4791 2.72 12.7671 2.952 12.9911 3.264C13.2231 3.568 13.3991 3.952 13.5191 4.416C13.6391 4.88 13.7031 5.42 13.7111 6.036H8.64713V5.328H12.9191L12.6071 5.592C12.5911 5.128 12.5471 4.732 12.4751 4.404C12.4111 4.076 12.3111 3.816 12.1751 3.624C12.0391 3.432 11.8671 3.292 11.6591 3.204C11.4511 3.116 11.1911 3.072 10.8791 3.072C10.5831 3.072 10.3151 3.128 10.0751 3.24C9.83513 3.344 9.62713 3.508 9.45113 3.732C9.28313 3.948 9.15113 4.228 9.05513 4.572C8.95913 4.916 8.91113 5.324 8.91113 5.796ZM18.4507 2.364V3.54C18.3947 3.532 18.3267 3.524 18.2467 3.516C18.1667 3.5 18.0827 3.492 17.9947 3.492C17.9067 3.484 17.8227 3.48 17.7427 3.48C17.5187 3.48 17.3147 3.5 17.1307 3.54C16.9547 3.58 16.7867 3.64 16.6267 3.72C16.4747 3.8 16.3267 3.904 16.1827 4.032C16.0387 4.16 15.8827 4.32 15.7147 4.512V4.044C15.9467 3.652 16.1747 3.332 16.3987 3.084C16.6227 2.828 16.8627 2.636 17.1187 2.508C17.3747 2.38 17.6667 2.316 17.9947 2.316C18.0907 2.316 18.1827 2.32 18.2707 2.328C18.3587 2.336 18.4187 2.348 18.4507 2.364ZM13.8187 9V8.424H13.8547C14.1747 8.424 14.4227 8.372 14.5987 8.268C14.7827 8.164 14.8747 7.964 14.8747 7.668V3.66C14.8747 3.54 14.8387 3.452 14.7667 3.396C14.7027 3.332 14.5987 3.28 14.4547 3.24C14.3187 3.2 14.1467 3.16 13.9387 3.12L13.8187 3.096V2.448H15.7147L15.9067 4.008L15.9427 3.972V8.196C15.9427 8.26 15.9987 8.308 16.1107 8.34C16.2227 8.372 16.3507 8.396 16.4947 8.412C16.6467 8.42 16.7787 8.424 16.8907 8.424H17.1787V9H13.8187ZM19.4247 5.796C19.4247 6.284 19.4807 6.696 19.5927 7.032C19.7047 7.368 19.8607 7.636 20.0607 7.836C20.2687 8.036 20.5047 8.18 20.7687 8.268C21.0407 8.356 21.3287 8.4 21.6327 8.4C21.9767 8.4 22.2727 8.344 22.5207 8.232C22.7767 8.12 22.9967 7.972 23.1807 7.788C23.3647 7.596 23.5207 7.392 23.6487 7.176L24.2367 7.644C24.0847 7.932 23.8767 8.192 23.6127 8.424C23.3567 8.648 23.0607 8.824 22.7247 8.952C22.3887 9.08 22.0167 9.144 21.6087 9.144C20.9927 9.144 20.4367 9.016 19.9407 8.76C19.4527 8.496 19.0647 8.116 18.7767 7.62C18.4887 7.116 18.3447 6.504 18.3447 5.784C18.3447 5.088 18.4727 4.484 18.7287 3.972C18.9847 3.452 19.3407 3.048 19.7967 2.76C20.2607 2.472 20.7927 2.328 21.3927 2.328C21.8727 2.328 22.2887 2.408 22.6407 2.568C22.9927 2.72 23.2807 2.952 23.5047 3.264C23.7367 3.568 23.9127 3.952 24.0327 4.416C24.1527 4.88 24.2167 5.42 24.2247 6.036H19.1607V5.328H23.4327L23.1207 5.592C23.1047 5.128 23.0607 4.732 22.9887 4.404C22.9247 4.076 22.8247 3.816 22.6887 3.624C22.5527 3.432 22.3807 3.292 22.1727 3.204C21.9647 3.116 21.7047 3.072 21.3927 3.072C21.0967 3.072 20.8287 3.128 20.5887 3.24C20.3487 3.344 20.1407 3.508 19.9647 3.732C19.7967 3.948 19.6647 4.228 19.5687 4.572C19.4727 4.916 19.4247 5.324 19.4247 5.796ZM26.3362 2.448V7.224C26.3362 7.464 26.3682 7.668 26.4322 7.836C26.4962 7.996 26.6042 8.116 26.7562 8.196C26.9082 8.276 27.1122 8.316 27.3682 8.316C27.6242 8.316 27.8763 8.264 28.1243 8.16C28.3723 8.056 28.6203 7.9 28.8683 7.692C29.1163 7.476 29.3643 7.208 29.6122 6.888V7.476C29.3803 7.828 29.1323 8.128 28.8683 8.376C28.6043 8.624 28.3203 8.812 28.0163 8.94C27.7203 9.068 27.4003 9.132 27.0562 9.132C26.6802 9.132 26.3562 9.064 26.0842 8.928C25.8122 8.792 25.6082 8.592 25.4722 8.328C25.3362 8.064 25.2682 7.74 25.2682 7.356V3.66C25.2682 3.484 25.1882 3.36 25.0282 3.288C24.8762 3.216 24.6402 3.16 24.3202 3.12L24.1402 3.096V2.448H26.3362ZM30.4523 2.448V7.836C30.4523 7.948 30.4923 8.036 30.5723 8.1C30.6523 8.164 30.7643 8.216 30.9083 8.256C31.0603 8.288 31.2363 8.316 31.4363 8.34L31.5322 8.352V9H29.6122L29.4202 7.548L29.3843 7.5V3.66C29.3843 3.484 29.3043 3.36 29.1443 3.288C28.9923 3.208 28.7563 3.152 28.4363 3.12L28.1363 3.096V2.448H30.4523ZM35.5996 7.272C35.5996 7.072 35.5516 6.908 35.4556 6.78C35.3596 6.644 35.2276 6.536 35.0596 6.456C34.8996 6.368 34.7156 6.3 34.5076 6.252C34.2996 6.196 34.0836 6.144 33.8596 6.096C33.5876 6.032 33.3196 5.96 33.0556 5.88C32.7996 5.8 32.5676 5.692 32.3596 5.556C32.1516 5.412 31.9836 5.232 31.8556 5.016C31.7276 4.792 31.6636 4.508 31.6636 4.164C31.6636 3.796 31.7556 3.476 31.9396 3.204C32.1316 2.924 32.4076 2.708 32.7676 2.556C33.1276 2.396 33.5596 2.316 34.0636 2.316C34.4636 2.316 34.8116 2.34 35.1076 2.388C35.4116 2.428 35.6636 2.48 35.8636 2.544C36.0636 2.6 36.2076 2.652 36.2956 2.7V4.272H35.2396V3C35.3196 3 35.3876 3.012 35.4436 3.036C35.5076 3.052 35.5556 3.084 35.5876 3.132C35.6276 3.172 35.6596 3.228 35.6836 3.3C35.7076 3.364 35.7156 3.444 35.7076 3.54C35.6116 3.428 35.4796 3.336 35.3116 3.264C35.1516 3.192 34.9636 3.14 34.7476 3.108C34.5396 3.068 34.3116 3.048 34.0636 3.048C33.5676 3.048 33.2076 3.136 32.9836 3.312C32.7596 3.488 32.6476 3.732 32.6476 4.044C32.6476 4.244 32.6916 4.412 32.7796 4.548C32.8756 4.684 33.0036 4.792 33.1636 4.872C33.3316 4.952 33.5236 5.024 33.7396 5.088C33.9556 5.144 34.1836 5.196 34.4236 5.244C34.6876 5.3 34.9476 5.372 35.2036 5.46C35.4676 5.54 35.7036 5.648 35.9116 5.784C36.1196 5.92 36.2876 6.1 36.4156 6.324C36.5436 6.548 36.6076 6.828 36.6076 7.164C36.6076 7.548 36.5116 7.888 36.3196 8.184C36.1276 8.48 35.8396 8.712 35.4556 8.88C35.0716 9.048 34.5956 9.132 34.0276 9.132C33.6196 9.132 33.2556 9.104 32.9356 9.048C32.6156 9 32.3316 8.936 32.0836 8.856C31.8436 8.768 31.6356 8.672 31.4596 8.568V6.924H32.5516V8.628C32.4236 8.572 32.3236 8.516 32.2516 8.46C32.1876 8.396 32.1396 8.332 32.1076 8.268C32.0836 8.204 32.0716 8.14 32.0716 8.076C32.0716 8.004 32.0796 7.932 32.0956 7.86C32.2156 7.956 32.3676 8.048 32.5516 8.136C32.7436 8.216 32.9636 8.284 33.2116 8.34C33.4596 8.388 33.7316 8.412 34.0276 8.412C34.3796 8.412 34.6716 8.372 34.9036 8.292C35.1356 8.204 35.3076 8.076 35.4196 7.908C35.5396 7.74 35.5996 7.528 35.5996 7.272Z" fill="#0E1D37"/>
</g>
<defs>
<clipPath id="clip0_102_6">
<rect width="37" height="11" fill="white"/>
</clipPath>
</defs>
</svg>
